<svg xmlns="http://www.w3.org/2000/svg" xmlns:xlink="http://www.w3.org/1999/xlink" width="500" zoomAndPan="magnify" viewBox="0 0 375 374.999991" height="500" preserveAspectRatio="xMidYMid meet" version="1.0"><defs><clipPath id="c64d3e4270"><path d="M 0 66.136719 L 375 66.136719 L 375 309.136719 L 0 309.136719 Z M 0 66.136719 " clip-rule="nonzero"/></clipPath><clipPath id="ae057ffc3e"><path d="M 44 242 L 287 242 L 287 309.136719 L 44 309.136719 Z M 44 242 " clip-rule="nonzero"/></clipPath><clipPath id="ea053d4bfe"><path d="M 176 66.136719 L 199 66.136719 L 199 133 L 176 133 Z M 176 66.136719 " clip-rule="nonzero"/></clipPath><clipPath id="ffea709f9a"><path d="M 308 66.136719 L 331 66.136719 L 331 89 L 308 89 Z M 308 66.136719 " clip-rule="nonzero"/></clipPath></defs><g clip-path="url(#c64d3e4270)"><path fill="#ffbbea" d="M 352.941406 132.425781 L 352.941406 66.171875 L 308.824219 66.171875 L 308.824219 88.257812 L 286.765625 88.257812 L 286.765625 110.339844 L 242.648438 110.339844 L 242.648438 88.257812 L 220.589844 88.257812 L 220.589844 66.171875 L 176.46875 66.171875 L 176.46875 132.425781 L 154.410156 132.425781 L 154.410156 176.59375 L 176.46875 176.59375 L 176.46875 198.679688 L 110.292969 198.679688 L 110.292969 220.761719 L 88.234375 220.761719 L 88.234375 242.847656 L 66.175781 242.847656 L 66.175781 198.679688 L 88.234375 198.679688 L 88.234375 176.59375 L 110.292969 176.59375 L 110.292969 154.511719 L 88.234375 154.511719 L 88.234375 132.425781 L 44.117188 132.425781 L 44.117188 154.511719 L 22.058594 154.511719 L 22.058594 176.59375 L 0 176.59375 L 0 264.933594 L 22.058594 264.933594 L 22.058594 287.015625 L 44.117188 287.015625 L 44.117188 309.101562 L 286.765625 309.101562 L 286.765625 287.015625 L 308.824219 287.015625 L 308.824219 264.933594 L 286.765625 264.933594 L 286.765625 242.847656 L 308.824219 242.847656 L 308.824219 220.761719 L 330.882812 220.761719 L 330.882812 198.679688 L 352.941406 198.679688 L 352.941406 176.59375 L 375 176.59375 L 375 132.425781 Z M 352.941406 132.425781 " fill-opacity="1" fill-rule="nonzero"/></g><path fill="#57bbff" d="M 132.351562 242.847656 L 176.46875 242.847656 L 176.46875 264.933594 L 132.351562 264.933594 Z M 132.351562 242.847656 " fill-opacity="1" fill-rule="nonzero"/><path fill="#57bbff" d="M 176.46875 264.933594 L 198.53125 264.933594 L 198.53125 287.015625 L 176.46875 287.015625 Z M 176.46875 264.933594 " fill-opacity="1" fill-rule="nonzero"/><path fill="#57bbff" d="M 44.117188 132.425781 L 88.234375 132.425781 L 88.234375 154.511719 L 44.117188 154.511719 Z M 44.117188 132.425781 " fill-opacity="1" fill-rule="nonzero"/><path fill="#57bbff" d="M 88.234375 154.511719 L 110.292969 154.511719 L 110.292969 176.59375 L 88.234375 176.59375 Z M 88.234375 154.511719 " fill-opacity="1" fill-rule="nonzero"/><path fill="#57bbff" d="M 286.765625 264.933594 L 308.824219 264.933594 L 308.824219 287.015625 L 286.765625 287.015625 Z M 286.765625 264.933594 " fill-opacity="1" fill-rule="nonzero"/><path fill="#e24795" d="M 220.589844 176.59375 L 242.648438 176.59375 L 242.648438 198.679688 L 220.589844 198.679688 Z M 220.589844 176.59375 " fill-opacity="1" fill-rule="nonzero"/><path fill="#e24795" d="M 286.765625 176.59375 L 308.824219 176.59375 L 308.824219 198.679688 L 286.765625 198.679688 Z M 286.765625 176.59375 " fill-opacity="1" fill-rule="nonzero"/><path fill="#5211ba" d="M 220.589844 154.511719 L 242.648438 154.511719 L 242.648438 176.59375 L 220.589844 176.59375 Z M 220.589844 154.511719 " fill-opacity="1" fill-rule="nonzero"/><path fill="#5211ba" d="M 286.765625 154.511719 L 308.824219 154.511719 L 308.824219 176.59375 L 286.765625 176.59375 Z M 286.765625 154.511719 " fill-opacity="1" fill-rule="nonzero"/><path fill="#5211ba" d="M 176.46875 176.59375 L 198.53125 176.59375 L 198.53125 198.679688 L 176.46875 198.679688 Z M 176.46875 176.59375 " fill-opacity="1" fill-rule="nonzero"/><path fill="#5211ba" d="M 198.53125 198.679688 L 220.589844 198.679688 L 220.589844 220.761719 L 198.53125 220.761719 Z M 198.53125 198.679688 " fill-opacity="1" fill-rule="nonzero"/><path fill="#5211ba" d="M 220.589844 220.761719 L 308.824219 220.761719 L 308.824219 242.847656 L 220.589844 242.847656 Z M 220.589844 220.761719 " fill-opacity="1" fill-rule="nonzero"/><g clip-path="url(#ae057ffc3e)"><path fill="#5211ba" d="M 88.234375 242.847656 L 66.175781 242.847656 L 66.175781 287.015625 L 44.117188 287.015625 L 44.117188 309.101562 L 286.765625 309.101562 L 286.765625 287.015625 L 88.234375 287.015625 Z M 88.234375 242.847656 " fill-opacity="1" fill-rule="nonzero"/></g><path fill="#5211ba" d="M 308.824219 198.679688 L 330.882812 198.679688 L 330.882812 220.761719 L 308.824219 220.761719 Z M 308.824219 198.679688 " fill-opacity="1" fill-rule="nonzero"/><path fill="#5211ba" d="M 330.882812 176.59375 L 352.941406 176.59375 L 352.941406 198.679688 L 330.882812 198.679688 Z M 330.882812 176.59375 " fill-opacity="1" fill-rule="nonzero"/><path fill="#9f8fff" d="M 110.292969 220.761719 L 88.234375 220.761719 L 88.234375 287.015625 L 176.46875 287.015625 L 176.46875 264.933594 L 110.292969 264.933594 Z M 110.292969 220.761719 " fill-opacity="1" fill-rule="nonzero"/><path fill="#9f8fff" d="M 44.117188 242.847656 L 22.058594 242.847656 L 22.058594 220.761719 L 44.117188 220.761719 L 44.117188 198.679688 L 22.058594 198.679688 L 22.058594 176.59375 L 0 176.59375 L 0 264.933594 L 22.058594 264.933594 L 22.058594 287.015625 L 66.175781 287.015625 L 66.175781 264.933594 L 44.117188 264.933594 Z M 44.117188 242.847656 " fill-opacity="1" fill-rule="nonzero"/><path fill="#9f8fff" d="M 22.058594 154.511719 L 44.117188 154.511719 L 44.117188 176.59375 L 22.058594 176.59375 Z M 22.058594 154.511719 " fill-opacity="1" fill-rule="nonzero"/><path fill="#9f8fff" d="M 66.175781 176.59375 L 88.234375 176.59375 L 88.234375 198.679688 L 66.175781 198.679688 Z M 66.175781 176.59375 " fill-opacity="1" fill-rule="nonzero"/><path fill="#9f8fff" d="M 198.53125 176.59375 L 220.589844 176.59375 L 220.589844 198.679688 L 198.53125 198.679688 Z M 198.53125 176.59375 " fill-opacity="1" fill-rule="nonzero"/><path fill="#9f8fff" d="M 308.824219 176.59375 L 330.882812 176.59375 L 330.882812 198.679688 L 308.824219 198.679688 Z M 308.824219 176.59375 " fill-opacity="1" fill-rule="nonzero"/><path fill="#9f8fff" d="M 220.589844 198.679688 L 308.824219 198.679688 L 308.824219 220.761719 L 220.589844 220.761719 Z M 220.589844 198.679688 " fill-opacity="1" fill-rule="nonzero"/><path fill="#9f8fff" d="M 176.46875 154.511719 L 176.46875 132.425781 L 154.410156 132.425781 L 154.410156 176.59375 L 198.53125 176.59375 L 198.53125 154.511719 Z M 176.46875 154.511719 " fill-opacity="1" fill-rule="nonzero"/><g clip-path="url(#ea053d4bfe)"><path fill="#9f8fff" d="M 176.46875 66.171875 L 198.53125 66.171875 L 198.53125 132.425781 L 176.46875 132.425781 Z M 176.46875 66.171875 " fill-opacity="1" fill-rule="nonzero"/></g><path fill="#9f8fff" d="M 286.765625 88.257812 L 308.824219 88.257812 L 308.824219 110.339844 L 286.765625 110.339844 Z M 286.765625 88.257812 " fill-opacity="1" fill-rule="nonzero"/><g clip-path="url(#ffea709f9a)"><path fill="#9f8fff" d="M 308.824219 66.171875 L 330.882812 66.171875 L 330.882812 88.257812 L 308.824219 88.257812 Z M 308.824219 66.171875 " fill-opacity="1" fill-rule="nonzero"/></g><path fill="#9f8fff" d="M 264.707031 242.847656 L 286.765625 242.847656 L 286.765625 287.015625 L 264.707031 287.015625 Z M 264.707031 242.847656 " fill-opacity="1" fill-rule="nonzero"/><path fill="#57bbff" d="M 286.765625 88.257812 L 308.824219 88.257812 L 308.824219 110.339844 L 286.765625 110.339844 Z M 286.765625 88.257812 " fill-opacity="1" fill-rule="nonzero"/><path fill="#57bbff" d="M 352.941406 132.425781 L 375 132.425781 L 375 176.59375 L 352.941406 176.59375 Z M 352.941406 132.425781 " fill-opacity="1" fill-rule="nonzero"/></svg>